<svg width="70" height="70" viewBox="0 0 70 70" fill="none" xmlns="http://www.w3.org/2000/svg">
<g clip-path="url(#clip0_1_565)">
<path d="M69.9433 9.89637C69.8056 9.47513 69.4416 9.16724 69.0018 9.10298L64.8228 8.49512L62.9526 4.70809C62.5606 3.91005 61.2527 3.91005 60.8608 4.70809L58.9906 8.49512L54.8114 9.10312C54.3716 9.16724 54.0076 9.47418 53.8687 9.89651C53.7323 10.3188 53.8453 10.7831 54.1639 11.0924L57.1891 14.0407L56.4752 18.2034C56.4005 18.6409 56.5802 19.0831 56.9384 19.3445C57.3012 19.6082 57.7748 19.6407 58.168 19.4331L61.9061 17.4672L65.6442 19.4331C65.8146 19.5229 66.0024 19.5672 66.1879 19.5672C66.4294 19.5672 66.671 19.4925 66.874 19.3443C67.2333 19.0831 67.413 18.6408 67.3372 18.2033L66.6233 14.0405L69.6485 11.0923C69.9654 10.7819 70.0798 10.3187 69.9433 9.89637ZM64.5556 12.7991C64.2815 13.0662 64.1555 13.4536 64.2208 13.8316L64.6385 16.2688L62.4499 15.1184C62.2795 15.0286 62.0929 14.9843 61.9061 14.9843C61.7195 14.9843 61.534 15.0286 61.3624 15.1184L59.1736 16.2688L59.5913 13.8316C59.6567 13.4536 59.5306 13.0675 59.2565 12.7991L57.4843 11.0724L59.932 10.7166C60.3124 10.6617 60.6402 10.4226 60.8106 10.0783L61.9049 7.86169L62.9992 10.0783C63.1696 10.4225 63.4974 10.6617 63.8778 10.7166L66.3255 11.0724L64.5556 12.7991Z" fill="#2196F3"/>
<path d="M57.167 44.8923H54.8336V47.2257H57.167V44.8923Z" fill="#2196F3"/>
<path d="M57.167 49.5591H54.8336V51.8925H57.167V49.5591Z" fill="#2196F3"/>
<path d="M59.5004 47.2257H57.167V49.5591H59.5004V47.2257Z" fill="#2196F3"/>
<path d="M54.8337 47.2257H52.5003V49.5591H54.8337V47.2257Z" fill="#2196F3"/>
<path d="M49.0002 57.7259H46.6668V60.0593H49.0002V57.7259Z" fill="#2196F3"/>
<path d="M49.0002 62.3926H46.6668V64.726H49.0002V62.3926Z" fill="#2196F3"/>
<path d="M51.3337 60.0593H49.0002V62.3927H51.3337V60.0593Z" fill="#2196F3"/>
<path d="M46.6668 60.0593H44.3334V62.3927H46.6668V60.0593Z" fill="#2196F3"/>
<path d="M35 53.0592H32.6666V55.3926H35V53.0592Z" fill="#2196F3"/>
<path d="M35 57.7259H32.6666V60.0593H35V57.7259Z" fill="#2196F3"/>
<path d="M37.3334 55.3925H35V57.7259H37.3334V55.3925Z" fill="#2196F3"/>
<path d="M32.6666 55.3925H30.3332V57.7259H32.6666V55.3925Z" fill="#2196F3"/>
<path d="M12.833 13.3918H10.4996V15.7252H12.833V13.3918Z" fill="#2196F3"/>
<path d="M12.833 18.0587H10.4996V20.3921H12.833V18.0587Z" fill="#2196F3"/>
<path d="M15.1663 15.7252H12.8329V18.0586H15.1663V15.7252Z" fill="#2196F3"/>
<path d="M10.4996 15.7252H8.1662V18.0586H10.4996V15.7252Z" fill="#2196F3"/>
<path d="M50.2837 30.8895C49.6989 30.0366 48.8405 29.4876 47.8661 29.3397C46.8873 29.1896 45.9215 29.4676 45.1402 30.114L42.5934 32.2245L42.5923 32.2257L38.7314 35.3428L35.9687 34.1532C40.895 31.7635 44.3382 26.4361 44.3382 20.2511C44.3382 11.8419 37.9848 5 30.1753 5C22.3658 5 16.0125 11.8419 16.0125 20.2511C16.0125 23.2991 16.8556 26.1334 18.2912 28.5184L12.6681 28.4656C12.6648 28.4656 12.6616 28.4656 12.6583 28.4656C12.6409 28.4656 12.6269 28.475 12.6106 28.4762C12.5032 28.4809 12.3979 28.5044 12.2949 28.5442C12.2688 28.5548 12.2417 28.5607 12.2168 28.5735C12.2038 28.5794 12.1907 28.5805 12.1778 28.5875L5.59981 32.0988L5.59765 32.0999L1.7454 34.1027C1.70305 34.1227 1.65969 34.1496 1.61735 34.1801C0.0818652 35.2852 -0.441152 37.4556 0.399898 39.2294C0.848017 40.1726 1.61086 40.8672 2.54843 41.185C2.90982 41.307 3.27872 41.3669 3.64546 41.3669C4.23472 41.3669 4.81853 41.2109 5.35337 40.9024L8.17688 39.2787L12.7832 36.7072L15.5438 36.6896L4.47226 48.602L4.46896 48.6043L1.74527 51.5372C1.10183 52.2294 0.748067 53.1479 0.748067 54.1276C0.748067 55.106 1.10183 56.0269 1.74527 56.7203C2.40613 57.4312 3.27529 57.7879 4.14444 57.7879C5.01474 57.7879 5.88275 57.4312 6.54577 56.7203L9.21948 53.8414L12.7613 50.9823L14.5941 52.9556L11.0099 56.8141L11.0066 56.8164L8.28293 59.7493C7.63949 60.4415 7.28572 61.36 7.28572 62.3397C7.28572 63.3182 7.63949 64.239 8.28293 64.9325C8.94379 65.6434 9.81409 66 10.6832 66C11.5524 66 12.4227 65.6434 13.0846 64.9325L15.8093 61.9996L20.1681 57.307L20.1703 57.3034L22.2245 55.1037L22.2168 55.0955C22.2298 55.0814 22.2483 55.0766 22.2614 55.0615L32.7718 42.6154L39.8338 43.7018C39.8847 43.71 39.9357 43.7134 39.9867 43.7134C40.1181 43.7134 40.245 43.6795 40.3676 43.629C40.4034 43.615 40.4348 43.5962 40.4685 43.5775C40.5076 43.5563 40.5488 43.5446 40.5858 43.5177L47.1236 38.825C47.1475 38.8074 47.1605 38.7793 47.1832 38.7606C47.2093 38.7383 47.2418 38.7289 47.2656 38.7042L49.8525 36.0845C51.1985 34.721 51.384 32.4873 50.2837 30.8895ZM4.33442 38.8318C3.9818 39.0359 3.58137 39.0769 3.19835 38.9456C2.81852 38.8178 2.51041 38.5373 2.33022 38.1584C2.00252 37.4685 2.19237 36.6285 2.76638 36.1745L5.43908 34.7843L6.08252 36.8174L6.35274 37.6714L4.33442 38.8318ZM11.4495 34.8114L8.29946 36.5712L7.77975 34.9287L7.40653 33.7484L11.53 31.5475L11.4495 34.8114ZM42.1702 20.2488C42.1702 22.2689 41.7243 24.1743 40.9516 25.8788L32.4444 21.7011C32.3553 20.44 31.7499 19.3361 30.8406 18.6485L33.8192 7.95748C38.6567 9.62114 42.1702 14.5003 42.1702 20.2488ZM18.1849 20.2488C18.1849 13.1335 23.5649 7.34391 30.1776 7.34391C30.6919 7.34391 31.1954 7.39079 31.6935 7.45884L28.7799 17.9153C28.7409 17.9141 28.704 17.9024 28.6638 17.9024C26.563 17.9024 24.8539 19.7442 24.8539 22.0085C24.8539 24.2727 26.563 26.1147 28.6638 26.1147C30.0766 26.1147 31.2974 25.2712 31.9561 24.0369L39.8144 27.8967C37.6279 31.0783 34.1284 33.1537 30.1774 33.1537C23.5649 33.1537 18.1849 27.3641 18.1849 20.2488ZM30.3035 22.0085C30.3035 22.9788 29.5677 23.7683 28.6638 23.7683C27.76 23.7683 27.0242 22.9788 27.0242 22.0085C27.0242 21.0383 27.76 20.2488 28.6638 20.2488C29.5677 20.2488 30.3035 21.0383 30.3035 22.0085ZM5.01486 55.0567C4.53419 55.5717 3.75609 55.5706 3.27656 55.0579C3.04538 54.808 2.91847 54.4784 2.91847 54.1276C2.91847 53.778 3.04538 53.4483 3.27656 53.2008L5.23396 51.0926L6.96579 52.9568L5.01486 55.0567ZM11.5537 63.2689C11.073 63.784 10.2939 63.7852 9.81422 63.2702C9.58304 63.0202 9.45613 62.6907 9.45613 62.3399C9.45613 61.9902 9.58304 61.6606 9.81422 61.4131L11.7729 59.3037L12.5922 60.1849L13.5059 61.168L11.5537 63.2689ZM18.6374 55.6386L18.6341 55.641L15.0434 59.5124L14.2241 58.6313L13.3104 57.6482L16.8978 53.7873V53.7862L16.9011 53.7839C16.9825 53.6959 17.0335 53.5903 17.0834 53.486C17.0976 53.4554 17.1246 53.4296 17.1366 53.398C17.1703 53.3077 17.1756 53.2103 17.1887 53.1152C17.1952 53.0612 17.217 53.0108 17.217 52.9556C17.217 52.8769 17.1909 52.8008 17.1758 52.7232C17.1628 52.6528 17.1628 52.5812 17.1377 52.5133C17.0965 52.403 17.026 52.3057 16.9522 52.2106C16.9316 52.1847 16.924 52.1519 16.9012 52.1272H16.9001L16.8979 52.1226L13.6284 48.6031C13.5937 48.5655 13.5492 48.5503 13.5102 48.5187C13.4527 48.4705 13.3974 48.426 13.3333 48.3919C13.2715 48.359 13.2086 48.3391 13.1434 48.3203C13.074 48.2991 13.0067 48.2827 12.934 48.2768C12.8678 48.2722 12.806 48.2792 12.7398 48.2874C12.6671 48.2968 12.5988 48.3074 12.5282 48.332C12.4598 48.3555 12.3992 48.3918 12.3362 48.4305C12.296 48.4551 12.2505 48.4634 12.2125 48.4939L8.60452 51.4058L6.77174 49.4325L11.6526 44.1838L20.5246 53.6173L18.6374 55.6386ZM32.5106 40.2044C32.4792 40.1997 32.4498 40.2126 32.4184 40.2103C32.3392 40.2056 32.2633 40.2115 32.1841 40.2256C32.1223 40.2372 32.0636 40.2502 32.005 40.2724C31.9356 40.2983 31.8726 40.3335 31.8086 40.3757C31.7478 40.4156 31.6925 40.4578 31.6393 40.5105C31.6132 40.5352 31.5818 40.547 31.5579 40.575L21.999 51.8938L13.1933 42.5307L18.9574 36.3317C19.3818 35.8742 19.3839 35.1315 18.9607 34.6716C18.747 34.4405 18.4659 34.3267 18.1849 34.3279V34.3268L13.6708 34.3561L13.7272 30.8202L20.0426 30.8789C22.6165 33.7251 26.206 35.5001 30.1776 35.5001C31.0673 35.5001 31.9355 35.4004 32.7807 35.2302C32.8621 35.3006 32.9423 35.3722 33.0444 35.4168L37.947 37.5285L38.2573 39.1966L38.6197 41.1441L32.5106 40.2044ZM40.7325 40.5962L40.0956 37.1694L43.0384 34.7937L43.8088 35.8988L44.9645 37.5576L40.7325 40.5962ZM48.3695 34.369L46.6648 36.0959L44.7702 33.3765L46.4618 31.9747C46.7776 31.7119 47.1758 31.6051 47.5665 31.6602C47.9593 31.72 48.3066 31.9418 48.5431 32.2855C48.9837 32.9273 48.9088 33.8224 48.3695 34.369Z" fill="#212121"/>
<path d="M29.7545 40.5651L25.0668 35.8984C24.613 35.4446 23.8755 35.4446 23.4205 35.8984L18.734 40.5651C18.5147 40.7856 18.391 41.0819 18.391 41.3922C18.391 41.7026 18.5135 42.0001 18.734 42.2194L23.4205 46.8861C23.648 47.1124 23.9468 47.2256 24.2443 47.2256C24.5418 47.2256 24.8404 47.1124 25.0668 46.8861L29.7545 42.2194C29.9738 42.0001 30.0987 41.7026 30.0987 41.3922C30.0987 41.0819 29.9749 40.7844 29.7545 40.5651ZM24.2443 44.4128L21.2109 41.3922L24.2443 38.3717L27.2788 41.3922L24.2443 44.4128Z" fill="#212121"/>
<path d="M37.5468 11.0923L36.9833 13.358C37.1385 13.3966 40.7844 14.3462 40.7844 18.0586H43.1178C43.1177 13.6461 39.4742 11.5718 37.5468 11.0923Z" fill="#212121"/>
<path d="M43.1178 20.3919H40.7844V22.7253H43.1178V20.3919Z" fill="#212121"/>
</g>
<defs>
<clipPath id="clip0_1_565">
<rect width="70" height="70" fill="white"/>
</clipPath>
</defs>
</svg>
